<mxfile host="65bd71144e">
    <diagram id="_c8Sex3cLCf6lcYWAg1a" name="Page-1">
        <mxGraphModel dx="2005" dy="1431" grid="1" gridSize="10" guides="1" tooltips="1" connect="1" arrows="1" fold="1" page="1" pageScale="1" pageWidth="850" pageHeight="1100" background="#000000" math="0" shadow="0">
            <root>
                <mxCell id="0"/>
                <mxCell id="1" parent="0"/>
                <mxCell id="ZbKQfEAxTy-AnpHIXFJX-2" value="Newsletter" style="text;html=1;strokeColor=none;fillColor=none;align=left;verticalAlign=middle;whiteSpace=wrap;rounded=0;fontSize=50;" parent="1" vertex="1">
                    <mxGeometry x="100" y="100" width="360" height="80" as="geometry"/>
                </mxCell>
                <mxCell id="ZbKQfEAxTy-AnpHIXFJX-6" value="" style="endArrow=none;html=1;fontSize=50;" parent="1" edge="1">
                    <mxGeometry width="50" height="50" relative="1" as="geometry">
                        <mxPoint x="1480" y="200" as="sourcePoint"/>
                        <mxPoint x="80" y="200" as="targetPoint"/>
                    </mxGeometry>
                </mxCell>
                <mxCell id="ZbKQfEAxTy-AnpHIXFJX-8" value="&lt;h1 style=&quot;font-size: 25px;&quot;&gt;Heading&lt;/h1&gt;&lt;p style=&quot;font-size: 25px;&quot;&gt;Lorem ipsum dolor sit amet, consectetur adipisicing elit, sed do eiusmod tempor incididunt ut labore et dolore magna aliqua.&lt;/p&gt;" style="text;html=1;strokeColor=none;fillColor=none;spacing=5;spacingTop=-20;whiteSpace=wrap;overflow=hidden;rounded=0;fontSize=25;" parent="1" vertex="1">
                    <mxGeometry x="100" y="240" width="880" height="120" as="geometry"/>
                </mxCell>
                <mxCell id="ZbKQfEAxTy-AnpHIXFJX-13" value="" style="endArrow=none;dashed=1;html=1;dashPattern=1 3;strokeWidth=2;fontSize=25;" parent="1" edge="1">
                    <mxGeometry width="50" height="50" relative="1" as="geometry">
                        <mxPoint x="1120" y="1080" as="sourcePoint"/>
                        <mxPoint x="1120" y="220" as="targetPoint"/>
                    </mxGeometry>
                </mxCell>
                <mxCell id="ZbKQfEAxTy-AnpHIXFJX-46" value="" style="group" parent="1" vertex="1" connectable="0">
                    <mxGeometry x="120" y="550" width="240" height="160" as="geometry"/>
                </mxCell>
                <mxCell id="ZbKQfEAxTy-AnpHIXFJX-37" value="&lt;b&gt;Header&lt;/b&gt;&lt;br&gt;Lorem ipsum dolor sit amet, consectetur&amp;nbsp; &amp;nbsp; &amp;nbsp; &amp;nbsp; &amp;nbsp; &amp;nbsp; &amp;nbsp; &amp;nbsp; &amp;nbsp;" style="rounded=1;whiteSpace=wrap;html=1;fillColor=none;fontSize=25;align=left;" parent="ZbKQfEAxTy-AnpHIXFJX-46" vertex="1">
                    <mxGeometry width="240" height="160" as="geometry"/>
                </mxCell>
                <mxCell id="ZbKQfEAxTy-AnpHIXFJX-43" value="" style="group" parent="ZbKQfEAxTy-AnpHIXFJX-46" vertex="1" connectable="0">
                    <mxGeometry x="150" y="120" width="70" height="30" as="geometry"/>
                </mxCell>
                <mxCell id="ZbKQfEAxTy-AnpHIXFJX-44" value="" style="rounded=1;whiteSpace=wrap;html=1;fillColor=#bac8d3;fontSize=25;arcSize=49;strokeColor=#23445d;" parent="ZbKQfEAxTy-AnpHIXFJX-43" vertex="1">
                    <mxGeometry width="70" height="30" as="geometry"/>
                </mxCell>
                <mxCell id="ZbKQfEAxTy-AnpHIXFJX-45" value="" style="ellipse;whiteSpace=wrap;html=1;aspect=fixed;fontSize=25;" parent="ZbKQfEAxTy-AnpHIXFJX-43" vertex="1">
                    <mxGeometry x="10" y="5" width="20" height="20" as="geometry"/>
                </mxCell>
                <mxCell id="ZbKQfEAxTy-AnpHIXFJX-47" value="" style="group" parent="1" vertex="1" connectable="0">
                    <mxGeometry x="380" y="550" width="240" height="160" as="geometry"/>
                </mxCell>
                <mxCell id="ZbKQfEAxTy-AnpHIXFJX-48" value="&lt;b&gt;Header&lt;/b&gt;&lt;br&gt;Lorem ipsum dolor sit amet, consectetur&amp;nbsp; &amp;nbsp; &amp;nbsp; &amp;nbsp; &amp;nbsp; &amp;nbsp; &amp;nbsp; &amp;nbsp; &amp;nbsp;" style="rounded=1;whiteSpace=wrap;html=1;fillColor=none;fontSize=25;align=left;" parent="ZbKQfEAxTy-AnpHIXFJX-47" vertex="1">
                    <mxGeometry width="240" height="160" as="geometry"/>
                </mxCell>
                <mxCell id="ZbKQfEAxTy-AnpHIXFJX-49" value="" style="group" parent="ZbKQfEAxTy-AnpHIXFJX-47" vertex="1" connectable="0">
                    <mxGeometry x="150" y="120" width="70" height="30" as="geometry"/>
                </mxCell>
                <mxCell id="ZbKQfEAxTy-AnpHIXFJX-50" value="" style="rounded=1;whiteSpace=wrap;html=1;fillColor=#bac8d3;fontSize=25;arcSize=49;strokeColor=#23445d;" parent="ZbKQfEAxTy-AnpHIXFJX-49" vertex="1">
                    <mxGeometry width="70" height="30" as="geometry"/>
                </mxCell>
                <mxCell id="ZbKQfEAxTy-AnpHIXFJX-51" value="" style="ellipse;whiteSpace=wrap;html=1;aspect=fixed;fontSize=25;" parent="ZbKQfEAxTy-AnpHIXFJX-49" vertex="1">
                    <mxGeometry x="10" y="5" width="20" height="20" as="geometry"/>
                </mxCell>
                <mxCell id="ZbKQfEAxTy-AnpHIXFJX-52" value="" style="group" parent="1" vertex="1" connectable="0">
                    <mxGeometry x="640" y="550" width="240" height="160" as="geometry"/>
                </mxCell>
                <mxCell id="ZbKQfEAxTy-AnpHIXFJX-53" value="&lt;b&gt;Header&lt;/b&gt;&lt;br&gt;Lorem ipsum dolor sit amet, consectetur&amp;nbsp; &amp;nbsp; &amp;nbsp; &amp;nbsp; &amp;nbsp; &amp;nbsp; &amp;nbsp; &amp;nbsp; &amp;nbsp;" style="rounded=1;whiteSpace=wrap;html=1;fillColor=none;fontSize=25;align=left;" parent="ZbKQfEAxTy-AnpHIXFJX-52" vertex="1">
                    <mxGeometry width="240" height="160" as="geometry"/>
                </mxCell>
                <mxCell id="ZbKQfEAxTy-AnpHIXFJX-54" value="" style="group" parent="ZbKQfEAxTy-AnpHIXFJX-52" vertex="1" connectable="0">
                    <mxGeometry x="150" y="120" width="70" height="30" as="geometry"/>
                </mxCell>
                <mxCell id="ZbKQfEAxTy-AnpHIXFJX-55" value="" style="rounded=1;whiteSpace=wrap;html=1;fillColor=#bac8d3;fontSize=25;arcSize=49;strokeColor=#23445d;" parent="ZbKQfEAxTy-AnpHIXFJX-54" vertex="1">
                    <mxGeometry width="70" height="30" as="geometry"/>
                </mxCell>
                <mxCell id="ZbKQfEAxTy-AnpHIXFJX-56" value="" style="ellipse;whiteSpace=wrap;html=1;aspect=fixed;fontSize=25;" parent="ZbKQfEAxTy-AnpHIXFJX-54" vertex="1">
                    <mxGeometry x="10" y="5" width="20" height="20" as="geometry"/>
                </mxCell>
                <mxCell id="ZbKQfEAxTy-AnpHIXFJX-57" value="" style="group" parent="1" vertex="1" connectable="0">
                    <mxGeometry x="120" y="730" width="240" height="160" as="geometry"/>
                </mxCell>
                <mxCell id="ZbKQfEAxTy-AnpHIXFJX-58" value="&lt;b&gt;Header&lt;/b&gt;&lt;br&gt;Lorem ipsum dolor sit amet, consectetur&amp;nbsp; &amp;nbsp; &amp;nbsp; &amp;nbsp; &amp;nbsp; &amp;nbsp; &amp;nbsp; &amp;nbsp; &amp;nbsp;" style="rounded=1;whiteSpace=wrap;html=1;fillColor=none;fontSize=25;align=left;" parent="ZbKQfEAxTy-AnpHIXFJX-57" vertex="1">
                    <mxGeometry width="240" height="160" as="geometry"/>
                </mxCell>
                <mxCell id="ZbKQfEAxTy-AnpHIXFJX-59" value="" style="group" parent="ZbKQfEAxTy-AnpHIXFJX-57" vertex="1" connectable="0">
                    <mxGeometry x="150" y="120" width="70" height="30" as="geometry"/>
                </mxCell>
                <mxCell id="ZbKQfEAxTy-AnpHIXFJX-60" value="" style="rounded=1;whiteSpace=wrap;html=1;fillColor=#bac8d3;fontSize=25;arcSize=49;strokeColor=#23445d;" parent="ZbKQfEAxTy-AnpHIXFJX-59" vertex="1">
                    <mxGeometry width="70" height="30" as="geometry"/>
                </mxCell>
                <mxCell id="ZbKQfEAxTy-AnpHIXFJX-61" value="" style="ellipse;whiteSpace=wrap;html=1;aspect=fixed;fontSize=25;" parent="ZbKQfEAxTy-AnpHIXFJX-59" vertex="1">
                    <mxGeometry x="10" y="5" width="20" height="20" as="geometry"/>
                </mxCell>
                <mxCell id="ZbKQfEAxTy-AnpHIXFJX-62" value="" style="group" parent="1" vertex="1" connectable="0">
                    <mxGeometry x="380" y="730" width="240" height="160" as="geometry"/>
                </mxCell>
                <mxCell id="ZbKQfEAxTy-AnpHIXFJX-63" value="&lt;b&gt;Header&lt;/b&gt;&lt;br&gt;Lorem ipsum dolor sit amet, consectetur&amp;nbsp; &amp;nbsp; &amp;nbsp; &amp;nbsp; &amp;nbsp; &amp;nbsp; &amp;nbsp; &amp;nbsp; &amp;nbsp;" style="rounded=1;whiteSpace=wrap;html=1;fillColor=none;fontSize=25;align=left;" parent="ZbKQfEAxTy-AnpHIXFJX-62" vertex="1">
                    <mxGeometry width="240" height="160" as="geometry"/>
                </mxCell>
                <mxCell id="ZbKQfEAxTy-AnpHIXFJX-64" value="" style="group" parent="ZbKQfEAxTy-AnpHIXFJX-62" vertex="1" connectable="0">
                    <mxGeometry x="150" y="120" width="70" height="30" as="geometry"/>
                </mxCell>
                <mxCell id="ZbKQfEAxTy-AnpHIXFJX-65" value="" style="rounded=1;whiteSpace=wrap;html=1;fillColor=#bac8d3;fontSize=25;arcSize=49;strokeColor=#23445d;" parent="ZbKQfEAxTy-AnpHIXFJX-64" vertex="1">
                    <mxGeometry width="70" height="30" as="geometry"/>
                </mxCell>
                <mxCell id="ZbKQfEAxTy-AnpHIXFJX-66" value="" style="ellipse;whiteSpace=wrap;html=1;aspect=fixed;fontSize=25;" parent="ZbKQfEAxTy-AnpHIXFJX-64" vertex="1">
                    <mxGeometry x="10" y="5" width="20" height="20" as="geometry"/>
                </mxCell>
                <mxCell id="ZbKQfEAxTy-AnpHIXFJX-67" value="" style="group" parent="1" vertex="1" connectable="0">
                    <mxGeometry x="640" y="730" width="240" height="160" as="geometry"/>
                </mxCell>
                <mxCell id="ZbKQfEAxTy-AnpHIXFJX-68" value="&lt;b&gt;Header&lt;/b&gt;&lt;br&gt;Lorem ipsum dolor sit amet, consectetur&amp;nbsp; &amp;nbsp; &amp;nbsp; &amp;nbsp; &amp;nbsp; &amp;nbsp; &amp;nbsp; &amp;nbsp; &amp;nbsp;" style="rounded=1;whiteSpace=wrap;html=1;fillColor=none;fontSize=25;align=left;" parent="ZbKQfEAxTy-AnpHIXFJX-67" vertex="1">
                    <mxGeometry width="240" height="160" as="geometry"/>
                </mxCell>
                <mxCell id="ZbKQfEAxTy-AnpHIXFJX-69" value="" style="group" parent="ZbKQfEAxTy-AnpHIXFJX-67" vertex="1" connectable="0">
                    <mxGeometry x="150" y="120" width="70" height="30" as="geometry"/>
                </mxCell>
                <mxCell id="ZbKQfEAxTy-AnpHIXFJX-70" value="" style="rounded=1;whiteSpace=wrap;html=1;fillColor=#bac8d3;fontSize=25;arcSize=49;strokeColor=#23445d;" parent="ZbKQfEAxTy-AnpHIXFJX-69" vertex="1">
                    <mxGeometry width="70" height="30" as="geometry"/>
                </mxCell>
                <mxCell id="ZbKQfEAxTy-AnpHIXFJX-71" value="" style="ellipse;whiteSpace=wrap;html=1;aspect=fixed;fontSize=25;" parent="ZbKQfEAxTy-AnpHIXFJX-69" vertex="1">
                    <mxGeometry x="10" y="5" width="20" height="20" as="geometry"/>
                </mxCell>
                <mxCell id="ZbKQfEAxTy-AnpHIXFJX-72" value="" style="group" parent="1" vertex="1" connectable="0">
                    <mxGeometry x="120" y="910" width="240" height="160" as="geometry"/>
                </mxCell>
                <mxCell id="ZbKQfEAxTy-AnpHIXFJX-73" value="&lt;b&gt;Header&lt;/b&gt;&lt;br&gt;Lorem ipsum dolor sit amet, consectetur&amp;nbsp; &amp;nbsp; &amp;nbsp; &amp;nbsp; &amp;nbsp; &amp;nbsp; &amp;nbsp; &amp;nbsp; &amp;nbsp;" style="rounded=1;whiteSpace=wrap;html=1;fillColor=none;fontSize=25;align=left;" parent="ZbKQfEAxTy-AnpHIXFJX-72" vertex="1">
                    <mxGeometry width="240" height="160" as="geometry"/>
                </mxCell>
                <mxCell id="ZbKQfEAxTy-AnpHIXFJX-74" value="" style="group" parent="ZbKQfEAxTy-AnpHIXFJX-72" vertex="1" connectable="0">
                    <mxGeometry x="150" y="120" width="70" height="30" as="geometry"/>
                </mxCell>
                <mxCell id="ZbKQfEAxTy-AnpHIXFJX-75" value="" style="rounded=1;whiteSpace=wrap;html=1;fillColor=#bac8d3;fontSize=25;arcSize=49;strokeColor=#23445d;" parent="ZbKQfEAxTy-AnpHIXFJX-74" vertex="1">
                    <mxGeometry width="70" height="30" as="geometry"/>
                </mxCell>
                <mxCell id="ZbKQfEAxTy-AnpHIXFJX-76" value="" style="ellipse;whiteSpace=wrap;html=1;aspect=fixed;fontSize=25;" parent="ZbKQfEAxTy-AnpHIXFJX-74" vertex="1">
                    <mxGeometry x="10" y="5" width="20" height="20" as="geometry"/>
                </mxCell>
                <mxCell id="ZbKQfEAxTy-AnpHIXFJX-77" value="" style="group" parent="1" vertex="1" connectable="0">
                    <mxGeometry x="380" y="910" width="240" height="160" as="geometry"/>
                </mxCell>
                <mxCell id="ZbKQfEAxTy-AnpHIXFJX-78" value="&lt;b&gt;Header&lt;/b&gt;&lt;br&gt;Lorem ipsum dolor sit amet, consectetur&amp;nbsp; &amp;nbsp; &amp;nbsp; &amp;nbsp; &amp;nbsp; &amp;nbsp; &amp;nbsp; &amp;nbsp; &amp;nbsp;" style="rounded=1;whiteSpace=wrap;html=1;fillColor=none;fontSize=25;align=left;" parent="ZbKQfEAxTy-AnpHIXFJX-77" vertex="1">
                    <mxGeometry width="240" height="160" as="geometry"/>
                </mxCell>
                <mxCell id="ZbKQfEAxTy-AnpHIXFJX-79" value="" style="group" parent="ZbKQfEAxTy-AnpHIXFJX-77" vertex="1" connectable="0">
                    <mxGeometry x="150" y="120" width="70" height="30" as="geometry"/>
                </mxCell>
                <mxCell id="ZbKQfEAxTy-AnpHIXFJX-80" value="" style="rounded=1;whiteSpace=wrap;html=1;fillColor=#bac8d3;fontSize=25;arcSize=49;strokeColor=#23445d;" parent="ZbKQfEAxTy-AnpHIXFJX-79" vertex="1">
                    <mxGeometry width="70" height="30" as="geometry"/>
                </mxCell>
                <mxCell id="ZbKQfEAxTy-AnpHIXFJX-81" value="" style="ellipse;whiteSpace=wrap;html=1;aspect=fixed;fontSize=25;" parent="ZbKQfEAxTy-AnpHIXFJX-79" vertex="1">
                    <mxGeometry x="10" y="5" width="20" height="20" as="geometry"/>
                </mxCell>
                <mxCell id="ZbKQfEAxTy-AnpHIXFJX-83" value="" style="shape=image;verticalLabelPosition=bottom;labelBackgroundColor=#ffffff;verticalAlign=top;imageAspect=0;image=data:image/png,iVBORw0KGgoAAAANSUhEUgAAACsAAAArCAYAAADhXXHAAAABc0lEQVRYCd3UAQ7CMAgF0N7PS3lzDUYWUqHwgc1qE9OtpfyXahxjjMcPfAYPxt54YZOZPGw7SLTAG7uApYd8x+AXWXBsfuFhdrDvRZEvc+HVVi1f+l6/C4nSDsj9s56t3CWWMNbBq6GU52KvBHsXE8JeAfag4ZulQhqRhu9SaIr2Dd8sp0cbc703I/1gLIUjASss2ieF7QCjUMpMYyvgDLSMzYCz0BYsAq5A27ARcBXail2BO6DtWA3cBT0FK8H3998NgTtG6a9rBWAozV3jFCx/9Qze9mYZysD5vXLLrTdrwax1FN6G9UDefgTego1ConUWvIxFAWi9hJew2eDsuTQ2G8g3lTmfwmaCGClntA+MRQMkTntG+kFYpLEGs9aifcPYaEML5K1H+oewkUYeJrLv5bhYr0EEgdSs8pbY1UEEgNZauSbWOoAGZ+u1fBWrFWZDK+dmxwd2LqiEdZyVng8sLVDBToPBKpYWd/3sdIl/aHkCOlsYU3m0Dm8AAAAASUVORK5CYII=;imageBackground=#FFFFFF;" parent="1" vertex="1">
                    <mxGeometry x="1160" y="880" width="290" height="210" as="geometry"/>
                </mxCell>
                <mxCell id="ZbKQfEAxTy-AnpHIXFJX-84" value="Trending Now" style="text;html=1;strokeColor=none;fillColor=none;align=center;verticalAlign=middle;whiteSpace=wrap;rounded=0;fontSize=25;" parent="1" vertex="1">
                    <mxGeometry x="1160" y="240" width="280" height="70" as="geometry"/>
                </mxCell>
                <mxCell id="ZbKQfEAxTy-AnpHIXFJX-90" value="" style="shape=image;verticalLabelPosition=bottom;labelBackgroundColor=#ffffff;verticalAlign=top;imageAspect=0;image=data:image/png,iVBORw0KGgoAAAANSUhEUgAAAYkAAABnCAYAAAD15L77AAALwElEQVR4Ae2dL7AcVRbGv6JWoGANCsUq1KpdhUIFFYXKKhQqVO1WVBSroqKCQqFAoaIWlTVRwRAVBYaoVG1VMKDYOsncR3/95vWb7rndff/8uir15sx033vu73TuNzN9v2lJ+p1/MOAc4BzgHOAcGJ0DSluIxA1J9yQ9lvSrpP9Iuivpg7QTfyEAAQhAoCkCMb/HPB/zfcz7Mf+HDoQehC5cbBZIekvSTUn3JT2R9FLSQ0l3JP394igeQAACEIBATQRi/o55PObzmNdjfo95Pub7mPeHm+mCBcO9Do/fkfSxpAeSnkp6IelbSbcl/fXI/jwFAQhAAAL7E4j5OebpmK9j3o75O+bxmM9jXp/aTBcsmDrq8Nq7km5J+lLSM0k/S/pa0qeS3j/heHaBAAQgAIH8BGL+jXk45uPnh/k55umYr2PenrOZLlgwp5XDvu9J+kTSV5J+kvTj4XE895cF7XEIBCAAAQhcTyDm1zT3xrw7nHtjXj5nM12w4JxWD8fmVLMM6dAEBCAAgSYIjL/FiU8La32LY7pgwQooz/lebIV0aBICEIBAFQT2vB5sumDBBuj+NrjC/svoCvvbG/RPFxCAAARKJBDz31UrS2Pe3HIzXbBgyywOfQ3X6v42Wqv75g750CUEIACBLQjE/PbRwKMW818pHjXTBQu2IDPRxxuSPpT0uaRHB0NH/I04no/X2SAAAQjUSKCm+c10wYLCyIfSDt3gJSltYahIBwIQKJBArd+UmC5YUCDkYUpDN/j3Izf41t/ZDfPiMQQgAIEgMMfVXDIx0wULSs76SG57Xv0/kg5PQQACnRFodfWm6YIFlRd4vI4YN3jlBSV9CBRGoBcfmOmCBYUV5Nx0cIOfS5DjIdA3gTVdzSWTNV2woOSsM+TWy7uADKhoAgJdEohvI/4x+G26NV3NJQM2XbCg5KxXyG38feIPM34lcYV0aBICENiYANc1jwM3XbDg+P7dPDt0g49/bx03eDenAQNtmEBJruaSMZsuWFBy1jvkltY4fycJN/gOBaBLCJxJoGRX85lDW/Vw0wULVu227sZrckvWTZrsIbCcAP9Pl7MbHmm6YMFwLx5PEsANPomHFyGwGYH0iT9+94hP/Hmwmy5YkKf9LlvBDd5l2Rn0DgRacTXvgO7kLk0XLDi5CXa8jgCrJq4jxOsQOI1ArEL8bOG9mk/rgb3GBEwXLBjvSZyNwNgN3uv662xAaahZAviZ9i+t6YIF++fWTQZDN3ju+9N2A5GBNkGgV1dzycUzXbCg5Kwbzy29e/pGUnzKeHZwfd6SFJ9C2CDQCgFczeVX0nTBgvJz7ybDsRv8KW7wbmrf2kC5PldfRU0XLKhvLN1kjBu8m1JXP1BczdWXUKYLFtQ/tm5GkNaG4wbvpuTFDhRXc7GlWZyY6YIFi5vkwD0JJJfpv7k3+J5l6KZvzrf2S226YEH7Y+9ihLjBuyjzpoNMn1xxNW+KfbfOTBcs2C0lOl6TAG7wNem22Tau5jbreuqoTBcsOLUF9quaQFpt8oWkWDX14uBmvS0pVlWx9UcAV3N/NZ8asemCBVNH8VqzBHCDN1vaKweWfDlf48u5klHPL5guWNAzFcZ+QQA3+AWKZh7gam6mlJsMxHTBgk26p5PaCKR3nbjB66kcruZ6alVipqYLFpSYLTkVR4Dvr4sridJ1pgdcZyqvOBVmZLpgQYWDIeX9CUy5wWNlFVt+Aria8zOlxT8ImC5Y8Mc+PILAYgJpTT1u8MUILx2Iq/kSEp5YkYDpggUrdkrTfRLAnbus7nBbxo2j8hAwXbAgT/u0AoErCeAGvxKN0icwXM1XM+KVbQiYLliwTf/0AoELAkM3+BNJLyU9lHRHUlzraHnD1dxydesem+mCBXWPi+wbIJBW6bToBmdVWAMnaCdDMF2woBMADLMeAjWv90/+ElzN9ZxvZPqagOmCBRCCQOEESnaD42ou/OQhvZMJmC5YcHIT7AiBMgikd+t7uMFr/pRTRvXIolQCpgsWlJoxeUHgRAJrfu/f8vWSE/GyWycETBcs6AQAw+yHwDlu8J5XXvVzhjDSYwRMFyw4tjfPQaAhAlNehD9L+kjSPUmPJf0mKTwLd6VXHoaGMDAUCEwSMF2wYPIwXoRAWwT+JOlfkv4r6X+S4v9C/H0k6Z+S4nU2CPRIwHTBgh5pMOauCPBJoqtyM9iFBEwXLFjYIIdBoFQCXJMotTLkVTIB0wULSs6a3CBwAgFWN50AiV0gcA0B0wULrjmQlyFQGgF8EqVVhHxaIGC6YEELo2MMTRMo2XFdcm5NnxQMLjsB0wULsndFgxA4j0DNrub0KYffbjrvHODo7QmYLliwfS70CAEj0LKrec3rJQaRAAJnEjBdsODMhjkcAnMJ9Oxq5n4Sc88W9t+KgOmCBVtlQD/dEuDOdFeXfsrDEdzYILAVAdMFC7bKgH66IcC9mpeVGm7LuHFUHgKmCxbkaZ9WOieQ3hF/d/j9o/gdpPg9pBuSeEe87OQIbvyu1DJ2HDWfgOmCBfPb4ggIvLoXddyTOu5NHfeojntV35d0U1Jcc2DLT+DtA9/g3Nu9wfPTpMUxAdMFC8Z7EkPgCAFW6RyBsvNTaVXYA0lPJb2Q9K2k25KiXmwQmEPAdMGCOa2wbzcE0nr/Pe7+1g3kzAOt2V+SGQXNLSBgumDBgsY4pD0COIfbqyn3326vpmuOyHTBgjV7pe1iCcS7zluSvpT0TNJzSeES/lRSfIpga49A+nSIG7y92uYYkemCBTlap43iCaTvr7/g++via7VVglxn2op0Hf2YLlhQR/5kOZPA0NX8/WEFUqxEihVJcb8FNgiMCeAGHxPpKzZdsKAvDs2OFldzs6XdbWDJ+xL3/I57f+N92a0Um3RsumDBJt3TSW4CuHNzE6W9KQKcb1N02njNdMGCNsbXxSjSOztczV2Uu+hB4gYvujyLkjNdsGBRcxy0BYGpezWH+5YNAqUQwA1eSiWW52G6YMHyNjkyM4FYbRJu2XDNhns2XLThpv1YUqxOYoNALQTSajrc4LVUTDJdsKCeMTSXaVq3jqu5udIyoBEB3OAjIAWGpgsWFJhsqynham61soxrLgHc4HOJrb+/6YIF6/fdbQ+4mrstPQOfSSB9qsYNPhNcxt1NFyzI2EnvTfE9bO9nAOPPRQA3eC6Sp7djumDB6W2w54gAruYREEIIrEQAN/hKYAfNmi5YMNiJh9MEcDVP8+FVCGxFIHmGcIPnI266YEG+PpprKblMP5f0SK+XiMXfiD+UFK+zQQAC+xLg/2ke/qYLFuRpv5lW0jsUXM3NlJSBdEYAN/iygpsuWLCsvWaOwtXcTCkZCASOEsANfhTLpSdNFyy4tGvbT4xdzT/gam674IwOAiMCrEIcATmEpgsWHN+/mWdZf91MKRkIBFYhgBv8NVbTBQtWwb5fo0NX80+SfpT0laRPJIXLkw0CEIDAFIFe3eCmCxZM0argtbGr+Wfu1VxB1UgRAvUQ6OXbCNMFC+qp1atM+T6xsoKRLgQaIzC+rtnKrzWbLlhQeAFxNRdeINKDQOcEWnGDmy5YUFiBcTUXVhDSgQAEZhFIXqva3OCmCxbMGn7+nXFL5mdKixCAQBkEaprfTBcs2IFlrUq7Ayq6hAAEGiJQshvcdMGCDQowdDX/IumJpPuSbkriXs0bFIAuIACBIgmU5AY3XbBgBXStXv1fARVNQgACELggsOfqTdMFCy7SW/6gl3XEywlxJAQgAIH5BMY+sOcr+sBMFyyYn7dwNS+AxiEQgAAEziSwphvcdMGCE5Ieqxmu5hOgsQsEIACBlQnk/BbHdMGCI4PY83uxI+nwFAQgAAEInEDgnOvBpgsWSBq6mmPl0UtJDyXdkRRuQjYIQAACEKiPwBw3uOlCBDck3ZP0WNKvksIdeFdSeBjYIAABCECgPQJDj1rM+zH/hw6EHlwSiXiCfzDgHOAc4BzgHEjnwIUshuuPDQIQgAAEIJAIoAuJBH8hAAEIQOBqAv8HkpHoUSayPXUAAAAASUVORK5CYII=;imageBackground=#FFFFFF;" parent="1" vertex="1">
                    <mxGeometry x="1250" y="88.5" width="221" height="103" as="geometry"/>
                </mxCell>
                <mxCell id="ZbKQfEAxTy-AnpHIXFJX-91" value="&lt;h1 style=&quot;font-size: 20px&quot;&gt;• Daniel&lt;/h1&gt;&lt;div&gt;• John&lt;/div&gt;&lt;div&gt;• Eric&lt;/div&gt;" style="text;html=1;strokeColor=none;fillColor=none;spacing=5;spacingTop=-20;whiteSpace=wrap;overflow=hidden;rounded=0;fontSize=25;align=left;fontStyle=0" parent="1" vertex="1">
                    <mxGeometry x="1160" y="400" width="280" height="120" as="geometry"/>
                </mxCell>
                <mxCell id="ZbKQfEAxTy-AnpHIXFJX-92" value="" style="endArrow=none;html=1;fontSize=25;" parent="1" edge="1">
                    <mxGeometry width="50" height="50" relative="1" as="geometry">
                        <mxPoint x="1160" y="320" as="sourcePoint"/>
                        <mxPoint x="1440" y="320" as="targetPoint"/>
                    </mxGeometry>
                </mxCell>
                <mxCell id="ZbKQfEAxTy-AnpHIXFJX-95" value="" style="endArrow=none;html=1;fontSize=25;" parent="1" edge="1">
                    <mxGeometry width="50" height="50" relative="1" as="geometry">
                        <mxPoint x="85" y="1240" as="sourcePoint"/>
                        <mxPoint x="1435" y="1240" as="targetPoint"/>
                    </mxGeometry>
                </mxCell>
                <mxCell id="ZbKQfEAxTy-AnpHIXFJX-96" value="Contact Us" style="text;html=1;strokeColor=none;fillColor=none;align=center;verticalAlign=middle;whiteSpace=wrap;rounded=0;fontSize=25;" parent="1" vertex="1">
                    <mxGeometry x="230" y="1270" width="170" height="90" as="geometry"/>
                </mxCell>
                <mxCell id="ZbKQfEAxTy-AnpHIXFJX-97" value="" style="shape=image;verticalLabelPosition=bottom;labelBackgroundColor=#ffffff;verticalAlign=top;imageAspect=0;image=data:image/png,iVBORw0KGgoAAAANSUhEUgAAACsAAAArCAYAAADhXXHAAAABc0lEQVRYCd3UAQ7CMAgF0N7PS3lzDUYWUqHwgc1qE9OtpfyXahxjjMcPfAYPxt54YZOZPGw7SLTAG7uApYd8x+AXWXBsfuFhdrDvRZEvc+HVVi1f+l6/C4nSDsj9s56t3CWWMNbBq6GU52KvBHsXE8JeAfag4ZulQhqRhu9SaIr2Dd8sp0cbc703I/1gLIUjASss2ieF7QCjUMpMYyvgDLSMzYCz0BYsAq5A27ARcBXail2BO6DtWA3cBT0FK8H3998NgTtG6a9rBWAozV3jFCx/9Qze9mYZysD5vXLLrTdrwax1FN6G9UDefgTego1ConUWvIxFAWi9hJew2eDsuTQ2G8g3lTmfwmaCGClntA+MRQMkTntG+kFYpLEGs9aifcPYaEML5K1H+oewkUYeJrLv5bhYr0EEgdSs8pbY1UEEgNZauSbWOoAGZ+u1fBWrFWZDK+dmxwd2LqiEdZyVng8sLVDBToPBKpYWd/3sdIl/aHkCOlsYU3m0Dm8AAAAASUVORK5CYII=;imageBackground=#FFFFFF;" parent="1" vertex="1">
                    <mxGeometry x="120" y="1270" width="95" height="90" as="geometry"/>
                </mxCell>
                <mxCell id="ZbKQfEAxTy-AnpHIXFJX-98" value="" style="shape=image;verticalLabelPosition=bottom;labelBackgroundColor=#ffffff;verticalAlign=top;aspect=fixed;imageAspect=0;image=data:image/png,iVBORw0KGgoAAAANSUhEUgAAACsAAAArCAYAAADhXXHAAAABc0lEQVRYCd3UAQ7CMAgF0N7PS3lzDUYWUqHwgc1qE9OtpfyXahxjjMcPfAYPxt54YZOZPGw7SLTAG7uApYd8x+AXWXBsfuFhdrDvRZEvc+HVVi1f+l6/C4nSDsj9s56t3CWWMNbBq6GU52KvBHsXE8JeAfag4ZulQhqRhu9SaIr2Dd8sp0cbc703I/1gLIUjASss2ieF7QCjUMpMYyvgDLSMzYCz0BYsAq5A27ARcBXail2BO6DtWA3cBT0FK8H3998NgTtG6a9rBWAozV3jFCx/9Qze9mYZysD5vXLLrTdrwax1FN6G9UDefgTego1ConUWvIxFAWi9hJew2eDsuTQ2G8g3lTmfwmaCGClntA+MRQMkTntG+kFYpLEGs9aifcPYaEML5K1H+oewkUYeJrLv5bhYr0EEgdSs8pbY1UEEgNZauSbWOoAGZ+u1fBWrFWZDK+dmxwd2LqiEdZyVng8sLVDBToPBKpYWd/3sdIl/aHkCOlsYU3m0Dm8AAAAASUVORK5CYII=;imageBackground=#FFFFFF;" parent="1" vertex="1">
                    <mxGeometry x="1140" y="1293.5" width="43" height="43" as="geometry"/>
                </mxCell>
                <mxCell id="ZbKQfEAxTy-AnpHIXFJX-99" value="" style="shape=image;verticalLabelPosition=bottom;labelBackgroundColor=#ffffff;verticalAlign=top;aspect=fixed;imageAspect=0;image=data:image/png,iVBORw0KGgoAAAANSUhEUgAAACsAAAArCAYAAADhXXHAAAABc0lEQVRYCd3UAQ7CMAgF0N7PS3lzDUYWUqHwgc1qE9OtpfyXahxjjMcPfAYPxt54YZOZPGw7SLTAG7uApYd8x+AXWXBsfuFhdrDvRZEvc+HVVi1f+l6/C4nSDsj9s56t3CWWMNbBq6GU52KvBHsXE8JeAfag4ZulQhqRhu9SaIr2Dd8sp0cbc703I/1gLIUjASss2ieF7QCjUMpMYyvgDLSMzYCz0BYsAq5A27ARcBXail2BO6DtWA3cBT0FK8H3998NgTtG6a9rBWAozV3jFCx/9Qze9mYZysD5vXLLrTdrwax1FN6G9UDefgTego1ConUWvIxFAWi9hJew2eDsuTQ2G8g3lTmfwmaCGClntA+MRQMkTntG+kFYpLEGs9aifcPYaEML5K1H+oewkUYeJrLv5bhYr0EEgdSs8pbY1UEEgNZauSbWOoAGZ+u1fBWrFWZDK+dmxwd2LqiEdZyVng8sLVDBToPBKpYWd/3sdIl/aHkCOlsYU3m0Dm8AAAAASUVORK5CYII=;imageBackground=#FFFFFF;" parent="1" vertex="1">
                    <mxGeometry x="1200" y="1293.5" width="43" height="43" as="geometry"/>
                </mxCell>
                <mxCell id="ZbKQfEAxTy-AnpHIXFJX-100" value="" style="shape=image;verticalLabelPosition=bottom;labelBackgroundColor=#ffffff;verticalAlign=top;aspect=fixed;imageAspect=0;image=data:image/png,iVBORw0KGgoAAAANSUhEUgAAACsAAAArCAYAAADhXXHAAAABc0lEQVRYCd3UAQ7CMAgF0N7PS3lzDUYWUqHwgc1qE9OtpfyXahxjjMcPfAYPxt54YZOZPGw7SLTAG7uApYd8x+AXWXBsfuFhdrDvRZEvc+HVVi1f+l6/C4nSDsj9s56t3CWWMNbBq6GU52KvBHsXE8JeAfag4ZulQhqRhu9SaIr2Dd8sp0cbc703I/1gLIUjASss2ieF7QCjUMpMYyvgDLSMzYCz0BYsAq5A27ARcBXail2BO6DtWA3cBT0FK8H3998NgTtG6a9rBWAozV3jFCx/9Qze9mYZysD5vXLLrTdrwax1FN6G9UDefgTego1ConUWvIxFAWi9hJew2eDsuTQ2G8g3lTmfwmaCGClntA+MRQMkTntG+kFYpLEGs9aifcPYaEML5K1H+oewkUYeJrLv5bhYr0EEgdSs8pbY1UEEgNZauSbWOoAGZ+u1fBWrFWZDK+dmxwd2LqiEdZyVng8sLVDBToPBKpYWd/3sdIl/aHkCOlsYU3m0Dm8AAAAASUVORK5CYII=;imageBackground=#FFFFFF;" parent="1" vertex="1">
                    <mxGeometry x="1260" y="1293.5" width="43" height="43" as="geometry"/>
                </mxCell>
                <mxCell id="ZbKQfEAxTy-AnpHIXFJX-101" value="" style="shape=image;verticalLabelPosition=bottom;labelBackgroundColor=#ffffff;verticalAlign=top;aspect=fixed;imageAspect=0;image=data:image/png,iVBORw0KGgoAAAANSUhEUgAAACsAAAArCAYAAADhXXHAAAABc0lEQVRYCd3UAQ7CMAgF0N7PS3lzDUYWUqHwgc1qE9OtpfyXahxjjMcPfAYPxt54YZOZPGw7SLTAG7uApYd8x+AXWXBsfuFhdrDvRZEvc+HVVi1f+l6/C4nSDsj9s56t3CWWMNbBq6GU52KvBHsXE8JeAfag4ZulQhqRhu9SaIr2Dd8sp0cbc703I/1gLIUjASss2ieF7QCjUMpMYyvgDLSMzYCz0BYsAq5A27ARcBXail2BO6DtWA3cBT0FK8H3998NgTtG6a9rBWAozV3jFCx/9Qze9mYZysD5vXLLrTdrwax1FN6G9UDefgTego1ConUWvIxFAWi9hJew2eDsuTQ2G8g3lTmfwmaCGClntA+MRQMkTntG+kFYpLEGs9aifcPYaEML5K1H+oewkUYeJrLv5bhYr0EEgdSs8pbY1UEEgNZauSbWOoAGZ+u1fBWrFWZDK+dmxwd2LqiEdZyVng8sLVDBToPBKpYWd/3sdIl/aHkCOlsYU3m0Dm8AAAAASUVORK5CYII=;imageBackground=#FFFFFF;" parent="1" vertex="1">
                    <mxGeometry x="1320" y="1293.5" width="43" height="43" as="geometry"/>
                </mxCell>
                <mxCell id="ZbKQfEAxTy-AnpHIXFJX-102" value="" style="shape=image;verticalLabelPosition=bottom;labelBackgroundColor=#ffffff;verticalAlign=top;aspect=fixed;imageAspect=0;image=data:image/png,iVBORw0KGgoAAAANSUhEUgAAACsAAAArCAYAAADhXXHAAAABc0lEQVRYCd3UAQ7CMAgF0N7PS3lzDUYWUqHwgc1qE9OtpfyXahxjjMcPfAYPxt54YZOZPGw7SLTAG7uApYd8x+AXWXBsfuFhdrDvRZEvc+HVVi1f+l6/C4nSDsj9s56t3CWWMNbBq6GU52KvBHsXE8JeAfag4ZulQhqRhu9SaIr2Dd8sp0cbc703I/1gLIUjASss2ieF7QCjUMpMYyvgDLSMzYCz0BYsAq5A27ARcBXail2BO6DtWA3cBT0FK8H3998NgTtG6a9rBWAozV3jFCx/9Qze9mYZysD5vXLLrTdrwax1FN6G9UDefgTego1ConUWvIxFAWi9hJew2eDsuTQ2G8g3lTmfwmaCGClntA+MRQMkTntG+kFYpLEGs9aifcPYaEML5K1H+oewkUYeJrLv5bhYr0EEgdSs8pbY1UEEgNZauSbWOoAGZ+u1fBWrFWZDK+dmxwd2LqiEdZyVng8sLVDBToPBKpYWd/3sdIl/aHkCOlsYU3m0Dm8AAAAASUVORK5CYII=;imageBackground=#FFFFFF;" parent="1" vertex="1">
                    <mxGeometry x="1380" y="1293.5" width="43" height="43" as="geometry"/>
                </mxCell>
                <mxCell id="ZbKQfEAxTy-AnpHIXFJX-103" value="Learn more about newsletters" style="text;html=1;strokeColor=none;fillColor=none;align=left;verticalAlign=middle;whiteSpace=wrap;rounded=0;fontSize=25;" parent="1" vertex="1">
                    <mxGeometry x="440" y="1305" width="380" height="20" as="geometry"/>
                </mxCell>
                <mxCell id="3" value="&amp;nbsp;Search by topic:" style="rounded=0;whiteSpace=wrap;html=1;fontSize=24;align=left;" parent="1" vertex="1">
                    <mxGeometry x="120" y="400" width="920" height="70" as="geometry"/>
                </mxCell>
                <mxCell id="4" value="" style="rounded=0;whiteSpace=wrap;html=1;fontSize=24;fillColor=#647687;fontColor=#ffffff;strokeColor=#314354;" parent="1" vertex="1">
                    <mxGeometry x="350" y="405" width="530" height="60" as="geometry"/>
                </mxCell>
                <mxCell id="5" value="SUBMIT" style="rounded=1;whiteSpace=wrap;html=1;fontSize=24;fillColor=#e51400;fontColor=#B8B8B8;strokeColor=#B20000;" parent="1" vertex="1">
                    <mxGeometry x="890" y="405" width="140" height="60" as="geometry"/>
                </mxCell>
                <mxCell id="7" value="recent tweet from famous whatever dude" style="rounded=0;whiteSpace=wrap;html=1;fontSize=30;" vertex="1" parent="1">
                    <mxGeometry x="1162" y="600" width="288" height="240" as="geometry"/>
                </mxCell>
            </root>
        </mxGraphModel>
    </diagram>
</mxfile>